<svg t="1704961306516" class="icon" viewBox="0 0 1024 1024" version="1.1" xmlns="http://www.w3.org/2000/svg" p-id="1418" width="200" height="200"><path d="M593.68 800.2h164c16.87 0 16.89 0 16.9 16.43 0 14.31-0.22 28.62 0.06 42.93 0.14 7.16-2.55 10.29-9.89 10.06-10.15-0.31-20.33 0-30.49 0-130.66 0-261.33-0.83-392 0.78-23.58 0.29-37.14-9.11-50.66-25.06-25-29.5-50.8-58.3-76.25-87.4-15.81-18.07-32.71-35.34-47.13-54.47-20.49-27.2-19.34-65.58 8.69-96.73 33.62-37.36 66.48-75.39 99.8-113 31.1-35.1 62.5-69.93 93.51-105.1C400.78 354 430.88 319 461.37 284.36c25.3-28.73 50.86-57.22 76.38-85.75 8.5-9.51 16.94-19.11 25.94-28.15 22.11-22.2 54.62-22.53 76.38-0.3 31 31.65 59.28 65.75 88.37 99.12 18.25 21 36.81 41.61 55.23 62.41 23.88 27 48.27 53.52 71.48 81.07 20.5 24.33 19.12 65.57-2 89.73-33.86 38.66-68.05 77-102 115.66q-62.73 71.48-125.26 143.11c-8.41 9.6-17.14 18.91-25.82 28.26-2.54 2.74-5.07 5.37-6.39 10.68z m-63.16-30.88c5-2.44 7.89-6.49 11.07-10.13 8.91-10.15 17.64-20.46 26.59-30.58 24.87-28.12 49.89-56.11 74.72-84.27q47.29-53.64 94.38-107.46c22.07-25.11 44.08-50.27 66.27-75.28 3.63-4.09 2.72-7.2-0.44-10.77q-43.33-49-86.57-98c-32.28-36.64-64.71-73.15-96.6-110.12-16.93-19.63-18.19-19.82-35.39-0.07q-62.61 71.82-125.63 143.27-63.76 72.29-128 144.15c-5.21 5.83-5.67 9.7 0.11 16 26.69 29 52.89 58.46 79 88q57.54 65 114.8 130.18a67 67 0 0 0 5.69 5.08z m-61.7 30.81c-8.61-13.74-19-23.09-28.07-33.53-20.61-23.8-42.17-46.77-63-70.36-30.79-34.82-61.3-69.89-91.91-104.87-3.09-3.53-5.34-4-8.9 0.11q-27.41 32-55.51 63.41c-4.25 4.73-4.16 7.38 0.07 12 13.63 15 26.65 30.49 40 45.72q35.59 40.59 71.34 81.08c3 3.38 6.12 6.47 11.31 6.46 40.92-0.05 81.85-0.02 124.67-0.02z"  p-id="1419"></path></svg>