<svg t="1704962299116" class="icon" viewBox="0 0 1024 1024" version="1.1" xmlns="http://www.w3.org/2000/svg" p-id="996" width="200" height="200"><path d="M233.244444 99.441778A133.802667 133.802667 0 0 0 99.441778 233.244444v557.511112A133.802667 133.802667 0 0 0 233.244444 924.558222h557.511112a133.802667 133.802667 0 0 0 133.802666-133.802666V233.244444A133.802667 133.802667 0 0 0 790.755556 99.441778H233.244444zM32.540444 233.244444A200.704 200.704 0 0 1 233.244444 32.540444h557.511112A200.704 200.704 0 0 1 991.459556 233.244444v557.511112a200.704 200.704 0 0 1-200.704 200.704H233.244444A200.704 200.704 0 0 1 32.540444 790.755556V233.244444z m438.613334 65.592889a44.600889 44.600889 0 0 1 81.692444 0l48.355556 110.136889 114.915555 14.336a44.600889 44.600889 0 0 1 25.6 76.231111l-86.471111 84.024889 22.869334 121.116445a44.600889 44.600889 0 0 1-66.446223 46.648889L512 692.792889l-99.669333 58.595555a44.600889 44.600889 0 0 1-66.446223-46.648888l22.869334-121.116445-86.471111-84.024889a44.600889 44.600889 0 0 1 25.6-76.231111l114.915555-14.336 48.355556-110.136889zM512 372.224l-43.178667 98.417778-106.552889 13.312 78.904889 76.686222-20.48 108.145778L512 615.082667l91.249778 53.703111-20.423111-108.088889 78.904889-76.8-106.552889-13.255111L512 372.224z"  p-id="997"></path></svg>